<svg xmlns="http://www.w3.org/2000/svg" viewBox="-30 110 884.43 418"><path fill="#1E1E1A" fill-rule="evenodd" d="M77.97 140L216.54 140A75.37 75.37 0 0 1 291.91 215.37L291.91 285.61A43.09 43.09 0 0 0 265.59 276.63L220.16 276.63L220.15 233.17A28.76 28.76 0 0 0 191.4 204.42L97.4 204.42A25.64 25.64 0 0 0 71.76 230.05L71.76 311.73A25.25 25.25 0 0 0 97.01 336.98L153.14 336.98L153.14 373.67A43.09 43.09 0 0 0 162.12 400L74.33 400A74.33 74.33 0 0 1 0 325.67L0 217.97A77.97 77.97 0 0 1 77.97 140Z"/><path fill="#E5662C" d="M196.23 293.40H265.59A26.33 26.33 0 0 1 291.91 319.72V373.68A26.33 26.33 0 0 1 265.59 400.00H196.23A26.33 26.33 0 0 1 169.91 373.68V319.72A26.33 26.33 0 0 1 196.23 293.40Z"/><path fill="#1E1E1A" fill-rule="evenodd" d="M332.43 205.16H478.98A84.4 84.4 0 0 1 563.38 289.56V315.6A84.4 84.4 0 0 1 478.98 400H332.43A11 11 0 0 1 321.43 389V216.16A11 11 0 0 1 332.43 205.16ZM386.89 255.49H461.46A45.61 45.61 0 0 1 507.07 301.1V301.1A45.61 45.61 0 0 1 461.46 346.7H386.89A5.86 5.86 0 0 1 381.03 340.84V261.36A5.86 5.86 0 0 1 386.89 255.49Z"/><g fill="#1E1E1A"><path d="M590.47 205.16L641.67 205.16L761.51 318.78L761.51 205.16L813.43 205.16A11 11 0 0 1 824.43 216.16L824.43 389A11 11 0 0 1 813.43 400L761.51 400L641.67 286.38L641.67 400L590.47 400A11 11 0 0 1 579.47 389L579.47 216.16A11 11 0 0 1 590.47 205.16Z"/></g><path fill="#1E1E1A" d="M0 487.63V431.28H8.91V487.63ZM37 488.39Q32.43 488.39 29.05 486.6Q25.66 484.81 23.37 481.8Q21.09 478.79 19.99 475.06Q18.88 471.33 18.88 467.45Q18.88 463.57 19.99 459.84Q21.09 456.11 23.37 453.1Q25.66 450.09 29.05 448.3Q32.43 446.51 37 446.51Q40.81 446.51 43.36 447.73Q45.91 448.95 47.43 450.55Q48.96 452.15 49.64 453.29H50.1V429.76H58.78V487.63H50.1V481.61H49.64Q48.96 482.75 47.43 484.35Q45.91 485.95 43.36 487.17Q40.81 488.39 37 488.39ZM38.91 481.15Q42.64 481.15 45.11 479.14Q47.59 477.12 48.84 474Q50.1 470.88 50.1 467.45Q50.1 464.02 48.84 460.9Q47.59 457.78 45.11 455.76Q42.64 453.74 38.91 453.74Q35.18 453.74 32.66 455.76Q30.15 457.78 28.89 460.9Q27.64 464.02 27.64 467.45Q27.64 470.88 28.89 474Q30.15 477.12 32.66 479.14Q35.18 481.15 38.91 481.15ZM88.4 488.39Q83.3 488.39 79.6 486.6Q75.91 484.81 73.51 481.8Q71.11 478.79 69.93 475.06Q68.75 471.33 68.75 467.45Q68.75 463.64 69.9 459.91Q71.04 456.18 73.4 453.14Q75.76 450.09 79.41 448.3Q83.07 446.51 88.02 446.51Q93.35 446.51 97.42 448.91Q101.49 451.31 103.81 455.99Q106.14 460.67 106.14 467.6V469.96H77.51Q77.81 474.61 80.63 477.96Q83.45 481.31 88.4 481.31Q91.21 481.31 93.04 480.36Q94.87 479.4 95.86 478.19Q96.85 476.97 97.27 476.05Q97.69 475.14 97.69 475.14H105.76Q105.76 475.14 105.38 476.47Q104.99 477.8 103.97 479.78Q102.94 481.76 101.04 483.74Q99.13 485.72 96.01 487.06Q92.89 488.39 88.4 488.39ZM77.59 463.87H97.76Q97.46 458.54 94.6 456.03Q91.75 453.52 87.94 453.52Q83.68 453.52 80.86 456.3Q78.04 459.07 77.59 463.87ZM132.56 446.51Q136.36 446.51 138.91 447.73Q141.47 448.95 142.99 450.55Q144.51 452.15 145.2 453.29H145.65V447.27H154.33V487.63H145.65V481.61H145.2Q144.51 482.75 142.99 484.35Q141.47 485.95 138.91 487.17Q136.36 488.39 132.56 488.39Q127.99 488.39 124.6 486.6Q121.21 484.81 118.93 481.8Q116.64 478.79 115.54 475.06Q114.44 471.33 114.44 467.45Q114.44 463.57 115.54 459.84Q116.64 456.11 118.93 453.1Q121.21 450.09 124.6 448.3Q127.99 446.51 132.56 446.51ZM134.46 453.74Q130.73 453.74 128.22 455.76Q125.7 457.78 124.45 460.9Q123.19 464.02 123.19 467.45Q123.19 470.88 124.45 474Q125.7 477.12 128.22 479.14Q130.73 481.15 134.46 481.15Q138.19 481.15 140.67 479.14Q143.14 477.12 144.4 474Q145.65 470.88 145.65 467.45Q145.65 464.02 144.4 460.9Q143.14 457.78 140.67 455.76Q138.19 453.74 134.46 453.74ZM199.56 488.39Q194.76 488.39 191.87 486.64Q188.98 484.89 187.72 481.95Q186.46 479.02 186.46 475.6V454.28H179.38V447.27H186.46V437.22H195.14V447.27H204.58V454.28H195.14V475.44Q195.14 481.15 201.46 481.15Q203.06 481.15 204.43 480.93Q205.8 480.7 205.8 480.7V487.78Q205.8 487.78 203.94 488.08Q202.07 488.39 199.56 488.39ZM233.14 488.39Q226.51 488.39 221.98 485.42Q217.45 482.45 215.13 477.65Q212.81 472.86 212.81 467.45Q212.81 462.04 215.13 457.25Q217.45 452.45 221.98 449.48Q226.51 446.51 233.14 446.51Q239.68 446.51 244.21 449.48Q248.74 452.45 251.07 457.25Q253.39 462.04 253.39 467.45Q253.39 472.86 251.07 477.65Q248.74 482.45 244.21 485.42Q239.68 488.39 233.14 488.39ZM233.14 481Q236.87 481 239.42 479.1Q241.97 477.2 243.3 474.07Q244.63 470.95 244.63 467.45Q244.63 463.87 243.3 460.79Q241.97 457.7 239.42 455.8Q236.87 453.9 233.14 453.9Q229.41 453.9 226.82 455.8Q224.23 457.7 222.93 460.79Q221.64 463.87 221.64 467.45Q221.64 470.95 222.93 474.07Q224.23 477.2 226.82 479.1Q229.41 481 233.14 481ZM280.27 487.63V447.27H288.95V452.98H289.25Q289.94 451.77 291.27 450.24Q292.6 448.72 294.81 447.62Q297.02 446.51 300.37 446.51Q304.86 446.51 307.83 448.64Q310.8 450.78 312.24 454.28H312.4Q313.99 451.23 317.04 448.87Q320.09 446.51 325.11 446.51Q329.37 446.51 332.34 448.53Q335.31 450.55 336.8 453.94Q338.28 457.32 338.28 461.59V487.63H329.6V462.81Q329.6 458.85 327.7 456.33Q325.8 453.82 322.07 453.82Q319.02 453.82 317.15 455.5Q315.29 457.17 314.45 459.65Q313.61 462.12 313.61 464.63V487.63H304.93V462.81Q304.93 458.85 303.03 456.33Q301.13 453.82 297.4 453.82Q294.35 453.82 292.49 455.5Q290.62 457.17 289.78 459.65Q288.95 462.12 288.95 464.63V487.63ZM365.62 446.51Q369.42 446.51 371.97 447.73Q374.52 448.95 376.05 450.55Q377.57 452.15 378.26 453.29H378.71V447.27H387.39V487.63H378.71V481.61H378.26Q377.57 482.75 376.05 484.35Q374.52 485.95 371.97 487.17Q369.42 488.39 365.62 488.39Q361.05 488.39 357.66 486.6Q354.27 484.81 351.99 481.8Q349.7 478.79 348.6 475.06Q347.5 471.33 347.5 467.45Q347.5 463.57 348.6 459.84Q349.7 456.11 351.99 453.1Q354.27 450.09 357.66 448.3Q361.05 446.51 365.62 446.51ZM367.52 453.74Q363.79 453.74 361.28 455.76Q358.76 457.78 357.51 460.9Q356.25 464.02 356.25 467.45Q356.25 470.88 357.51 474Q358.76 477.12 361.28 479.14Q363.79 481.15 367.52 481.15Q371.25 481.15 373.73 479.14Q376.2 477.12 377.46 474Q378.71 470.88 378.71 467.45Q378.71 464.02 377.46 460.9Q376.2 457.78 373.73 455.76Q371.25 453.74 367.52 453.74ZM397.44 487.63V447.27H406.12V452.6H406.43Q407.57 450.24 410.04 448.38Q412.52 446.51 417.24 446.51Q418.69 446.51 419.71 446.66Q420.74 446.82 420.74 446.82V455.19Q420.74 455.19 419.6 455.04Q418.46 454.89 417.01 454.89Q411.68 454.89 408.9 457.89Q406.12 460.9 406.12 467.6V487.63ZM428.96 487.63V429.76H437.64V463.34L452.8 447.27H463.45L445.87 465.7L463.99 487.63H453.25L437.64 468.59V487.63ZM487.29 488.39Q482.18 488.39 478.49 486.6Q474.8 484.81 472.4 481.8Q470 478.79 468.82 475.06Q467.64 471.33 467.64 467.45Q467.64 463.64 468.78 459.91Q469.93 456.18 472.29 453.14Q474.65 450.09 478.3 448.3Q481.96 446.51 486.91 446.51Q492.23 446.51 496.31 448.91Q500.38 451.31 502.7 455.99Q505.03 460.67 505.03 467.6V469.96H476.4Q476.7 474.61 479.52 477.96Q482.34 481.31 487.29 481.31Q490.1 481.31 491.93 480.36Q493.76 479.4 494.75 478.19Q495.74 476.97 496.16 476.05Q496.57 475.14 496.57 475.14H504.65Q504.65 475.14 504.26 476.47Q503.88 477.8 502.86 479.78Q501.83 481.76 499.92 483.74Q498.02 485.72 494.9 487.06Q491.78 488.39 487.29 488.39ZM476.47 463.87H496.65Q496.35 458.54 493.49 456.03Q490.64 453.52 486.83 453.52Q482.57 453.52 479.75 456.3Q476.93 459.07 476.47 463.87ZM531.29 488.39Q526.5 488.39 523.6 486.64Q520.71 484.89 519.45 481.95Q518.2 479.02 518.2 475.6V454.28H511.12V447.27H518.2V437.22H526.88V447.27H536.32V454.28H526.88V475.44Q526.88 481.15 533.2 481.15Q534.8 481.15 536.17 480.93Q537.54 480.7 537.54 480.7V487.78Q537.54 487.78 535.67 488.08Q533.81 488.39 531.29 488.39ZM547.51 497.52 553.3 488.16Q551.17 488.01 549.76 486.52Q548.35 485.04 548.35 482.83Q548.35 480.39 549.99 478.91Q551.62 477.42 553.91 477.42Q556.27 477.42 557.9 478.91Q559.54 480.39 559.54 482.98Q559.54 485.34 557.83 488.31Q556.12 491.28 552.16 496.76L551.62 497.52ZM592.81 487.63V454.28H586.27V447.27H592.81V442.93Q592.81 440.57 593.42 438.14Q594.03 435.7 595.48 433.61Q596.93 431.51 599.44 430.26Q601.95 429 605.76 429Q607.97 429 609.41 429.34Q610.86 429.69 610.86 429.69V436.23Q610.86 436.23 609.75 436Q608.65 435.78 607.28 435.78Q603.93 435.78 602.71 437.79Q601.49 439.81 601.49 442.93V447.27H610.48V454.28H601.49V487.63ZM633.55 446.51Q637.35 446.51 639.91 447.73Q642.46 448.95 643.98 450.55Q645.5 452.15 646.19 453.29H646.64V447.27H655.32V487.63H646.64V481.61H646.19Q645.5 482.75 643.98 484.35Q642.46 485.95 639.91 487.17Q637.35 488.39 633.55 488.39Q628.98 488.39 625.59 486.6Q622.2 484.81 619.92 481.8Q617.64 478.79 616.53 475.06Q615.43 471.33 615.43 467.45Q615.43 463.57 616.53 459.84Q617.64 456.11 619.92 453.1Q622.2 450.09 625.59 448.3Q628.98 446.51 633.55 446.51ZM635.45 453.74Q631.72 453.74 629.21 455.76Q626.7 457.78 625.44 460.9Q624.18 464.02 624.18 467.45Q624.18 470.88 625.44 474Q626.7 477.12 629.21 479.14Q631.72 481.15 635.45 481.15Q639.18 481.15 641.66 479.14Q644.13 477.12 645.39 474Q646.64 470.88 646.64 467.45Q646.64 464.02 645.39 460.9Q644.13 457.78 641.66 455.76Q639.18 453.74 635.45 453.74ZM680.91 488.39Q676.11 488.39 673.03 487.06Q669.94 485.72 668.11 483.78Q666.29 481.84 665.41 479.86Q664.54 477.88 664.31 476.55Q664.08 475.22 664.08 475.22H672.53Q672.53 475.22 672.8 476.17Q673.06 477.12 673.9 478.34Q674.74 479.56 676.49 480.51Q678.24 481.46 681.13 481.46Q684.64 481.46 686.35 479.86Q688.06 478.26 688.06 476.21Q688.06 474.23 686.62 473.08Q685.17 471.94 682.5 471.33L677.02 470.11Q673.83 469.35 671.05 468.02Q668.27 466.69 666.55 464.44Q664.84 462.2 664.84 458.62Q664.84 453.36 668.8 449.94Q672.76 446.51 679.46 446.51Q683.8 446.51 686.65 447.73Q689.51 448.95 691.18 450.74Q692.86 452.53 693.7 454.32Q694.53 456.11 694.8 457.29Q695.07 458.47 695.07 458.47H686.92Q686.92 458.47 686.69 457.7Q686.46 456.94 685.7 455.91Q684.94 454.89 683.46 454.09Q681.97 453.29 679.46 453.29Q676.03 453.29 674.51 454.81Q672.99 456.33 672.99 458.08Q672.99 459.91 674.47 460.94Q675.96 461.97 678.39 462.5L683.8 463.72Q689.21 464.94 692.71 467.72Q696.21 470.5 696.21 475.75Q696.21 479.25 694.42 482.11Q692.63 484.96 689.21 486.67Q685.78 488.39 680.91 488.39ZM721.72 488.39Q716.92 488.39 714.03 486.64Q711.13 484.89 709.88 481.95Q708.62 479.02 708.62 475.6V454.28H701.54V447.27H708.62V437.22H717.3V447.27H726.74V454.28H717.3V475.44Q717.3 481.15 723.62 481.15Q725.22 481.15 726.59 480.93Q727.96 480.7 727.96 480.7V487.78Q727.96 487.78 726.09 488.08Q724.23 488.39 721.72 488.39ZM754.61 488.39Q749.51 488.39 745.81 486.6Q742.12 484.81 739.72 481.8Q737.32 478.79 736.14 475.06Q734.96 471.33 734.96 467.45Q734.96 463.64 736.11 459.91Q737.25 456.18 739.61 453.14Q741.97 450.09 745.62 448.3Q749.28 446.51 754.23 446.51Q759.56 446.51 763.63 448.91Q767.7 451.31 770.03 455.99Q772.35 460.67 772.35 467.6V469.96H743.72Q744.02 474.61 746.84 477.96Q749.66 481.31 754.61 481.31Q757.43 481.31 759.25 480.36Q761.08 479.4 762.07 478.19Q763.06 476.97 763.48 476.05Q763.9 475.14 763.9 475.14H771.97Q771.97 475.14 771.59 476.47Q771.21 477.8 770.18 479.78Q769.15 481.76 767.25 483.74Q765.34 485.72 762.22 487.06Q759.1 488.39 754.61 488.39ZM743.8 463.87H763.97Q763.67 458.54 760.81 456.03Q757.96 453.52 754.15 453.52Q749.89 453.52 747.07 456.3Q744.25 459.07 743.8 463.87ZM781.71 487.63V447.27H790.39V452.6H790.7Q791.84 450.24 794.31 448.38Q796.79 446.51 801.51 446.51Q802.96 446.51 803.98 446.66Q805.01 446.82 805.01 446.82V455.19Q805.01 455.19 803.87 455.04Q802.73 454.89 801.28 454.89Q795.95 454.89 793.17 457.89Q790.39 460.9 790.39 467.6V487.63Z"/><path fill="#E5662C" d="M818.95 488.39Q816.58 488.39 815.02 486.75Q813.46 485.11 813.46 482.91Q813.46 480.62 815.02 479.02Q816.58 477.42 818.95 477.42Q821.31 477.42 822.87 479.02Q824.43 480.62 824.43 482.91Q824.43 485.19 822.87 486.79Q821.31 488.39 818.95 488.39Z"/></svg>
